<mxfile host="app.diagrams.net" modified="2024-07-01T16:28:24.034Z" agent="Mozilla/5.0 (Windows NT 10.0; Win64; x64) AppleWebKit/537.36 (KHTML, like Gecko) Chrome/126.0.0.0 Safari/537.36" version="24.6.3" etag="HQ1yduCak7OLl9geI6eq" type="github">
  <diagram name="Страница — 1" id="6D_wEND17thWg54xiyXQ">
    <mxGraphModel dx="2074" dy="1132" grid="1" gridSize="10" guides="1" tooltips="1" connect="1" arrows="1" fold="1" page="1" pageScale="1" pageWidth="827" pageHeight="1169" math="0" shadow="0">
      <root>
        <mxCell id="0" />
        <mxCell id="1" parent="0" />
        <mxCell id="50" style="edgeStyle=none;html=1;entryX=0;entryY=0.5;entryDx=0;entryDy=0;endArrow=none;endFill=0;" parent="1" source="sTOlMVgeT1HYII_DFmIz-1" target="sTOlMVgeT1HYII_DFmIz-27" edge="1">
          <mxGeometry relative="1" as="geometry" />
        </mxCell>
        <mxCell id="51" style="edgeStyle=none;html=1;entryX=0;entryY=0.5;entryDx=0;entryDy=0;endArrow=none;endFill=0;" parent="1" source="sTOlMVgeT1HYII_DFmIz-1" target="sTOlMVgeT1HYII_DFmIz-36" edge="1">
          <mxGeometry relative="1" as="geometry" />
        </mxCell>
        <mxCell id="sTOlMVgeT1HYII_DFmIz-1" value="Сотрудник (свой ЛК)" style="shape=umlActor;html=1;verticalLabelPosition=bottom;verticalAlign=top;align=center;" parent="1" vertex="1">
          <mxGeometry x="50" y="310" width="30" height="60" as="geometry" />
        </mxCell>
        <mxCell id="sTOlMVgeT1HYII_DFmIz-3" value="Просмотреть профиль" style="ellipse;whiteSpace=wrap;html=1;" parent="1" vertex="1">
          <mxGeometry x="190" y="305" width="140" height="70" as="geometry" />
        </mxCell>
        <mxCell id="sTOlMVgeT1HYII_DFmIz-9" value="Просмотреть информацию о сотруднике" style="ellipse;whiteSpace=wrap;html=1;" parent="1" vertex="1">
          <mxGeometry x="430" y="70" width="140" height="70" as="geometry" />
        </mxCell>
        <mxCell id="sTOlMVgeT1HYII_DFmIz-10" value="&amp;lt;&amp;lt;include&amp;gt;&amp;gt;" style="edgeStyle=none;html=1;endArrow=open;verticalAlign=bottom;dashed=1;labelBackgroundColor=none;rounded=0;exitX=1;exitY=0;exitDx=0;exitDy=0;entryX=0;entryY=0.5;entryDx=0;entryDy=0;" parent="1" source="sTOlMVgeT1HYII_DFmIz-3" target="sTOlMVgeT1HYII_DFmIz-9" edge="1">
          <mxGeometry width="160" relative="1" as="geometry">
            <mxPoint x="330" y="580" as="sourcePoint" />
            <mxPoint x="490" y="580" as="targetPoint" />
          </mxGeometry>
        </mxCell>
        <mxCell id="sTOlMVgeT1HYII_DFmIz-18" value="Посмотреть средства свзяи" style="ellipse;whiteSpace=wrap;html=1;" parent="1" vertex="1">
          <mxGeometry x="440" y="305" width="140" height="70" as="geometry" />
        </mxCell>
        <mxCell id="sTOlMVgeT1HYII_DFmIz-19" value="&amp;lt;&amp;lt;include&amp;gt;&amp;gt;" style="edgeStyle=none;html=1;endArrow=open;verticalAlign=bottom;dashed=1;labelBackgroundColor=none;rounded=0;exitX=1;exitY=0.5;exitDx=0;exitDy=0;entryX=0;entryY=0.5;entryDx=0;entryDy=0;" parent="1" source="sTOlMVgeT1HYII_DFmIz-3" target="sTOlMVgeT1HYII_DFmIz-18" edge="1">
          <mxGeometry width="160" relative="1" as="geometry">
            <mxPoint x="340" y="185" as="sourcePoint" />
            <mxPoint x="500" y="425" as="targetPoint" />
          </mxGeometry>
        </mxCell>
        <mxCell id="sTOlMVgeT1HYII_DFmIz-27" value="Управлять календарём встреч" style="ellipse;whiteSpace=wrap;html=1;" parent="1" vertex="1">
          <mxGeometry x="190" y="1310" width="140" height="70" as="geometry" />
        </mxCell>
        <mxCell id="sTOlMVgeT1HYII_DFmIz-28" value="Изменить встречу" style="ellipse;whiteSpace=wrap;html=1;" parent="1" vertex="1">
          <mxGeometry x="430" y="1410" width="140" height="70" as="geometry" />
        </mxCell>
        <mxCell id="sTOlMVgeT1HYII_DFmIz-29" value="Удалить встречу" style="ellipse;whiteSpace=wrap;html=1;" parent="1" vertex="1">
          <mxGeometry x="430" y="1310" width="140" height="70" as="geometry" />
        </mxCell>
        <mxCell id="sTOlMVgeT1HYII_DFmIz-30" value="Добавить встречу" style="ellipse;whiteSpace=wrap;html=1;" parent="1" vertex="1">
          <mxGeometry x="430" y="1210" width="140" height="70" as="geometry" />
        </mxCell>
        <mxCell id="sTOlMVgeT1HYII_DFmIz-31" value="Посмотреть календарь на неделю/месяц" style="ellipse;whiteSpace=wrap;html=1;" parent="1" vertex="1">
          <mxGeometry x="430" y="1520" width="140" height="70" as="geometry" />
        </mxCell>
        <mxCell id="sTOlMVgeT1HYII_DFmIz-32" value="&amp;lt;&amp;lt;include&amp;gt;&amp;gt;" style="edgeStyle=none;html=1;endArrow=open;verticalAlign=bottom;dashed=1;labelBackgroundColor=none;rounded=0;exitX=1;exitY=0;exitDx=0;exitDy=0;entryX=0;entryY=0.5;entryDx=0;entryDy=0;" parent="1" source="sTOlMVgeT1HYII_DFmIz-27" target="sTOlMVgeT1HYII_DFmIz-30" edge="1">
          <mxGeometry width="160" relative="1" as="geometry">
            <mxPoint x="330" y="935" as="sourcePoint" />
            <mxPoint x="450" y="975" as="targetPoint" />
          </mxGeometry>
        </mxCell>
        <mxCell id="sTOlMVgeT1HYII_DFmIz-33" value="&amp;lt;&amp;lt;include&amp;gt;&amp;gt;" style="edgeStyle=none;html=1;endArrow=open;verticalAlign=bottom;dashed=1;labelBackgroundColor=none;rounded=0;exitX=1;exitY=0.5;exitDx=0;exitDy=0;entryX=0;entryY=0.5;entryDx=0;entryDy=0;" parent="1" source="sTOlMVgeT1HYII_DFmIz-27" target="sTOlMVgeT1HYII_DFmIz-29" edge="1">
          <mxGeometry width="160" relative="1" as="geometry">
            <mxPoint x="330" y="1225" as="sourcePoint" />
            <mxPoint x="450" y="1075" as="targetPoint" />
          </mxGeometry>
        </mxCell>
        <mxCell id="sTOlMVgeT1HYII_DFmIz-34" value="&amp;lt;&amp;lt;include&amp;gt;&amp;gt;" style="edgeStyle=none;html=1;endArrow=open;verticalAlign=bottom;dashed=1;labelBackgroundColor=none;rounded=0;exitX=1;exitY=1;exitDx=0;exitDy=0;entryX=0;entryY=0.5;entryDx=0;entryDy=0;" parent="1" source="sTOlMVgeT1HYII_DFmIz-27" target="sTOlMVgeT1HYII_DFmIz-28" edge="1">
          <mxGeometry width="160" relative="1" as="geometry">
            <mxPoint x="340" y="1235" as="sourcePoint" />
            <mxPoint x="460" y="1085" as="targetPoint" />
          </mxGeometry>
        </mxCell>
        <mxCell id="sTOlMVgeT1HYII_DFmIz-35" value="&amp;lt;&amp;lt;include&amp;gt;&amp;gt;" style="edgeStyle=none;html=1;endArrow=open;verticalAlign=bottom;dashed=1;labelBackgroundColor=none;rounded=0;entryX=0;entryY=0.5;entryDx=0;entryDy=0;exitX=0.5;exitY=1;exitDx=0;exitDy=0;" parent="1" source="sTOlMVgeT1HYII_DFmIz-27" target="sTOlMVgeT1HYII_DFmIz-31" edge="1">
          <mxGeometry width="160" relative="1" as="geometry">
            <mxPoint x="260" y="1220" as="sourcePoint" />
            <mxPoint x="470" y="1095" as="targetPoint" />
          </mxGeometry>
        </mxCell>
        <mxCell id="sTOlMVgeT1HYII_DFmIz-36" value="Посмотреть список личных достижений" style="ellipse;whiteSpace=wrap;html=1;" parent="1" vertex="1">
          <mxGeometry x="190" y="1670" width="140" height="70" as="geometry" />
        </mxCell>
        <mxCell id="sTOlMVgeT1HYII_DFmIz-37" value="Посмотреть подробную информацию о достижениях" style="ellipse;whiteSpace=wrap;html=1;" parent="1" vertex="1">
          <mxGeometry x="430" y="1670" width="140" height="70" as="geometry" />
        </mxCell>
        <mxCell id="sTOlMVgeT1HYII_DFmIz-40" value="&amp;lt;&amp;lt;include&amp;gt;&amp;gt;" style="edgeStyle=none;html=1;endArrow=open;verticalAlign=bottom;dashed=1;labelBackgroundColor=none;rounded=0;exitX=1;exitY=0.5;exitDx=0;exitDy=0;entryX=0;entryY=0.5;entryDx=0;entryDy=0;" parent="1" source="sTOlMVgeT1HYII_DFmIz-36" target="sTOlMVgeT1HYII_DFmIz-37" edge="1">
          <mxGeometry width="160" relative="1" as="geometry">
            <mxPoint x="340" y="1365" as="sourcePoint" />
            <mxPoint x="410" y="1650" as="targetPoint" />
          </mxGeometry>
        </mxCell>
        <mxCell id="sTOlMVgeT1HYII_DFmIz-71" value="" style="edgeStyle=none;html=1;endArrow=none;verticalAlign=bottom;rounded=0;exitX=0.5;exitY=0.5;exitDx=0;exitDy=0;exitPerimeter=0;entryX=0;entryY=0.5;entryDx=0;entryDy=0;" parent="1" source="sTOlMVgeT1HYII_DFmIz-1" target="sTOlMVgeT1HYII_DFmIz-3" edge="1">
          <mxGeometry width="160" relative="1" as="geometry">
            <mxPoint x="530" y="640" as="sourcePoint" />
            <mxPoint x="690" y="640" as="targetPoint" />
          </mxGeometry>
        </mxCell>
        <mxCell id="14" value="&amp;lt;&amp;lt;include&amp;gt;&amp;gt;" style="html=1;verticalAlign=bottom;labelBackgroundColor=none;endArrow=open;endFill=0;dashed=1;exitX=1;exitY=0;exitDx=0;exitDy=0;entryX=0;entryY=0.5;entryDx=0;entryDy=0;" parent="1" source="sTOlMVgeT1HYII_DFmIz-18" target="15" edge="1">
          <mxGeometry width="160" relative="1" as="geometry">
            <mxPoint x="600" y="564.5" as="sourcePoint" />
            <mxPoint x="650" y="590" as="targetPoint" />
          </mxGeometry>
        </mxCell>
        <mxCell id="15" value="Добавить средства связи" style="ellipse;whiteSpace=wrap;html=1;" parent="1" vertex="1">
          <mxGeometry x="660" y="220" width="140" height="70" as="geometry" />
        </mxCell>
        <mxCell id="16" value="&amp;lt;&amp;lt;include&amp;gt;&amp;gt;" style="html=1;verticalAlign=bottom;labelBackgroundColor=none;endArrow=open;endFill=0;dashed=1;exitX=1;exitY=0.5;exitDx=0;exitDy=0;entryX=0;entryY=0.5;entryDx=0;entryDy=0;" parent="1" source="sTOlMVgeT1HYII_DFmIz-18" target="17" edge="1">
          <mxGeometry width="160" relative="1" as="geometry">
            <mxPoint x="570" y="640" as="sourcePoint" />
            <mxPoint x="670" y="635" as="targetPoint" />
          </mxGeometry>
        </mxCell>
        <mxCell id="17" value="Изменить средства связи" style="ellipse;whiteSpace=wrap;html=1;" parent="1" vertex="1">
          <mxGeometry x="660" y="310" width="140" height="70" as="geometry" />
        </mxCell>
        <mxCell id="19" value="Удалить средства связи" style="ellipse;whiteSpace=wrap;html=1;" parent="1" vertex="1">
          <mxGeometry x="660" y="400" width="140" height="70" as="geometry" />
        </mxCell>
        <mxCell id="20" value="&amp;lt;&amp;lt;include&amp;gt;&amp;gt;" style="html=1;verticalAlign=bottom;labelBackgroundColor=none;endArrow=open;endFill=0;dashed=1;exitX=1;exitY=1;exitDx=0;exitDy=0;entryX=0;entryY=0.5;entryDx=0;entryDy=0;" parent="1" source="sTOlMVgeT1HYII_DFmIz-18" target="19" edge="1">
          <mxGeometry width="160" relative="1" as="geometry">
            <mxPoint x="585" y="690" as="sourcePoint" />
            <mxPoint x="685" y="690" as="targetPoint" />
          </mxGeometry>
        </mxCell>
        <mxCell id="21" value="Посмотреть опыт работы и навыки" style="ellipse;whiteSpace=wrap;html=1;" parent="1" vertex="1">
          <mxGeometry x="430" y="680" width="140" height="70" as="geometry" />
        </mxCell>
        <mxCell id="22" value="&amp;lt;&amp;lt;include&amp;gt;&amp;gt;" style="edgeStyle=none;html=1;endArrow=open;verticalAlign=bottom;dashed=1;labelBackgroundColor=none;rounded=0;entryX=0;entryY=0.5;entryDx=0;entryDy=0;exitX=1;exitY=1;exitDx=0;exitDy=0;" parent="1" source="sTOlMVgeT1HYII_DFmIz-3" target="21" edge="1">
          <mxGeometry x="-0.0069" width="160" relative="1" as="geometry">
            <mxPoint x="260" y="880" as="sourcePoint" />
            <mxPoint x="427" y="745" as="targetPoint" />
            <mxPoint as="offset" />
          </mxGeometry>
        </mxCell>
        <mxCell id="25" value="&amp;lt;&amp;lt;include&amp;gt;&amp;gt;" style="html=1;verticalAlign=bottom;labelBackgroundColor=none;endArrow=open;endFill=0;dashed=1;exitX=1;exitY=0.5;exitDx=0;exitDy=0;entryX=0;entryY=0.5;entryDx=0;entryDy=0;" parent="1" source="sTOlMVgeT1HYII_DFmIz-9" target="26" edge="1">
          <mxGeometry width="160" relative="1" as="geometry">
            <mxPoint x="550.0000000000005" y="95" as="sourcePoint" />
            <mxPoint x="660" y="435" as="targetPoint" />
          </mxGeometry>
        </mxCell>
        <mxCell id="26" value="Редактировать информацию о сотруднике" style="ellipse;whiteSpace=wrap;html=1;" parent="1" vertex="1">
          <mxGeometry x="660" y="70" width="140" height="70" as="geometry" />
        </mxCell>
        <mxCell id="29" value="&amp;lt;&amp;lt;extend&amp;gt;&amp;gt;" style="edgeStyle=none;html=1;startArrow=open;endArrow=none;startSize=12;verticalAlign=bottom;dashed=1;labelBackgroundColor=none;exitX=1;exitY=0;exitDx=0;exitDy=0;entryX=0;entryY=0.5;entryDx=0;entryDy=0;" parent="1" source="21" target="31" edge="1">
          <mxGeometry width="160" relative="1" as="geometry">
            <mxPoint x="540" y="430" as="sourcePoint" />
            <mxPoint x="710" y="475" as="targetPoint" />
          </mxGeometry>
        </mxCell>
        <mxCell id="30" value="&amp;lt;&amp;lt;extend&amp;gt;&amp;gt;" style="edgeStyle=none;html=1;startArrow=open;endArrow=none;startSize=12;verticalAlign=bottom;dashed=1;labelBackgroundColor=none;exitX=1;exitY=1;exitDx=0;exitDy=0;entryX=0;entryY=0.5;entryDx=0;entryDy=0;" parent="1" source="21" target="32" edge="1">
          <mxGeometry width="160" relative="1" as="geometry">
            <mxPoint x="550" y="520" as="sourcePoint" />
            <mxPoint x="710" y="560" as="targetPoint" />
          </mxGeometry>
        </mxCell>
        <mxCell id="31" value="Посмотреть опыт работы" style="ellipse;whiteSpace=wrap;html=1;" parent="1" vertex="1">
          <mxGeometry x="660" y="530" width="140" height="70" as="geometry" />
        </mxCell>
        <mxCell id="32" value="Посмотреть навыки" style="ellipse;whiteSpace=wrap;html=1;" parent="1" vertex="1">
          <mxGeometry x="660" y="860" width="140" height="70" as="geometry" />
        </mxCell>
        <mxCell id="33" value="Добавить опыт работы" style="ellipse;whiteSpace=wrap;html=1;" parent="1" vertex="1">
          <mxGeometry x="970" y="440" width="140" height="70" as="geometry" />
        </mxCell>
        <mxCell id="34" value="Изменить опыт работы" style="ellipse;whiteSpace=wrap;html=1;" parent="1" vertex="1">
          <mxGeometry x="970" y="530" width="140" height="70" as="geometry" />
        </mxCell>
        <mxCell id="35" value="Удалить опыт работы" style="ellipse;whiteSpace=wrap;html=1;" parent="1" vertex="1">
          <mxGeometry x="970" y="630" width="140" height="70" as="geometry" />
        </mxCell>
        <mxCell id="36" value="&amp;lt;&amp;lt;include&amp;gt;&amp;gt;" style="html=1;verticalAlign=bottom;labelBackgroundColor=none;endArrow=open;endFill=0;dashed=1;exitX=1;exitY=1;exitDx=0;exitDy=0;entryX=0;entryY=0.5;entryDx=0;entryDy=0;" parent="1" source="31" target="35" edge="1">
          <mxGeometry width="160" relative="1" as="geometry">
            <mxPoint x="799.9987067409382" y="479.536313482834" as="sourcePoint" />
            <mxPoint x="910.08" y="550" as="targetPoint" />
          </mxGeometry>
        </mxCell>
        <mxCell id="37" value="&amp;lt;&amp;lt;include&amp;gt;&amp;gt;" style="html=1;verticalAlign=bottom;labelBackgroundColor=none;endArrow=open;endFill=0;dashed=1;exitX=1;exitY=0.5;exitDx=0;exitDy=0;entryX=0;entryY=0.5;entryDx=0;entryDy=0;" parent="1" source="31" target="34" edge="1">
          <mxGeometry width="160" relative="1" as="geometry">
            <mxPoint x="800" y="410" as="sourcePoint" />
            <mxPoint x="870" y="489.9999999999998" as="targetPoint" />
          </mxGeometry>
        </mxCell>
        <mxCell id="38" value="&amp;lt;&amp;lt;include&amp;gt;&amp;gt;" style="html=1;verticalAlign=bottom;labelBackgroundColor=none;endArrow=open;endFill=0;dashed=1;exitX=1;exitY=0;exitDx=0;exitDy=0;entryX=0;entryY=0.5;entryDx=0;entryDy=0;" parent="1" source="31" target="33" edge="1">
          <mxGeometry width="160" relative="1" as="geometry">
            <mxPoint x="800" y="405" as="sourcePoint" />
            <mxPoint x="870" y="390" as="targetPoint" />
          </mxGeometry>
        </mxCell>
        <mxCell id="39" value="Добавить навыки" style="ellipse;whiteSpace=wrap;html=1;" parent="1" vertex="1">
          <mxGeometry x="970" y="760" width="140" height="70" as="geometry" />
        </mxCell>
        <mxCell id="40" value="Изменить навыки" style="ellipse;whiteSpace=wrap;html=1;" parent="1" vertex="1">
          <mxGeometry x="970" y="860" width="140" height="70" as="geometry" />
        </mxCell>
        <mxCell id="41" value="Удалить навыки" style="ellipse;whiteSpace=wrap;html=1;" parent="1" vertex="1">
          <mxGeometry x="970" y="960" width="140" height="70" as="geometry" />
        </mxCell>
        <mxCell id="45" value="&amp;lt;&amp;lt;include&amp;gt;&amp;gt;" style="html=1;verticalAlign=bottom;labelBackgroundColor=none;endArrow=open;endFill=0;dashed=1;exitX=1;exitY=1;exitDx=0;exitDy=0;entryX=0;entryY=0.5;entryDx=0;entryDy=0;" parent="1" source="32" target="41" edge="1">
          <mxGeometry width="160" relative="1" as="geometry">
            <mxPoint x="719.9974746830583" y="889.9987373415292" as="sourcePoint" />
            <mxPoint x="910.5" y="965.25" as="targetPoint" />
          </mxGeometry>
        </mxCell>
        <mxCell id="46" value="&amp;lt;&amp;lt;include&amp;gt;&amp;gt;" style="html=1;verticalAlign=bottom;labelBackgroundColor=none;endArrow=open;endFill=0;dashed=1;exitX=1;exitY=0;exitDx=0;exitDy=0;entryX=0;entryY=0.5;entryDx=0;entryDy=0;" parent="1" source="32" target="39" edge="1">
          <mxGeometry width="160" relative="1" as="geometry">
            <mxPoint x="789.9974746830583" y="699.9987373415292" as="sourcePoint" />
            <mxPoint x="980.5" y="775.25" as="targetPoint" />
          </mxGeometry>
        </mxCell>
        <mxCell id="47" value="&amp;lt;&amp;lt;include&amp;gt;&amp;gt;" style="html=1;verticalAlign=bottom;labelBackgroundColor=none;endArrow=open;endFill=0;dashed=1;exitX=1;exitY=0.5;exitDx=0;exitDy=0;entryX=0;entryY=0.5;entryDx=0;entryDy=0;" parent="1" source="32" target="40" edge="1">
          <mxGeometry width="160" relative="1" as="geometry">
            <mxPoint x="749.9974746830583" y="849.9987373415292" as="sourcePoint" />
            <mxPoint x="940.5" y="925.25" as="targetPoint" />
          </mxGeometry>
        </mxCell>
        <mxCell id="55" style="edgeStyle=none;html=1;entryX=0;entryY=0.5;entryDx=0;entryDy=0;endArrow=none;endFill=0;" parent="1" source="56" target="71" edge="1">
          <mxGeometry relative="1" as="geometry" />
        </mxCell>
        <mxCell id="114" style="edgeStyle=none;html=1;entryX=0;entryY=0.5;entryDx=0;entryDy=0;endArrow=none;endFill=0;" parent="1" source="56" target="62" edge="1">
          <mxGeometry relative="1" as="geometry" />
        </mxCell>
        <mxCell id="56" value="Сотрудник (чужой ЛК)" style="shape=umlActor;html=1;verticalLabelPosition=bottom;verticalAlign=top;align=center;rotation=0;" parent="1" vertex="1">
          <mxGeometry x="50" y="1990" width="30" height="60" as="geometry" />
        </mxCell>
        <mxCell id="57" value="Посмотреть профиль" style="ellipse;whiteSpace=wrap;html=1;" parent="1" vertex="1">
          <mxGeometry x="190" y="1985" width="140" height="70" as="geometry" />
        </mxCell>
        <mxCell id="58" value="Посмотреть информацию о сотруднике" style="ellipse;whiteSpace=wrap;html=1;" parent="1" vertex="1">
          <mxGeometry x="430" y="1900" width="140" height="70" as="geometry" />
        </mxCell>
        <mxCell id="59" value="&amp;lt;&amp;lt;include&amp;gt;&amp;gt;" style="edgeStyle=none;html=1;endArrow=open;verticalAlign=bottom;dashed=1;labelBackgroundColor=none;rounded=0;exitX=1;exitY=0;exitDx=0;exitDy=0;entryX=0;entryY=0.5;entryDx=0;entryDy=0;" parent="1" source="57" target="58" edge="1">
          <mxGeometry width="160" relative="1" as="geometry">
            <mxPoint x="330" y="2427" as="sourcePoint" />
            <mxPoint x="490" y="2427" as="targetPoint" />
          </mxGeometry>
        </mxCell>
        <mxCell id="60" value="Посмотреть средства связи" style="ellipse;whiteSpace=wrap;html=1;" parent="1" vertex="1">
          <mxGeometry x="430" y="1985" width="140" height="70" as="geometry" />
        </mxCell>
        <mxCell id="61" value="&amp;lt;&amp;lt;include&amp;gt;&amp;gt;" style="edgeStyle=none;html=1;endArrow=open;verticalAlign=bottom;dashed=1;labelBackgroundColor=none;rounded=0;exitX=1;exitY=0.5;exitDx=0;exitDy=0;entryX=0;entryY=0.5;entryDx=0;entryDy=0;" parent="1" source="57" target="60" edge="1">
          <mxGeometry width="160" relative="1" as="geometry">
            <mxPoint x="340" y="2032" as="sourcePoint" />
            <mxPoint x="500" y="2272" as="targetPoint" />
          </mxGeometry>
        </mxCell>
        <mxCell id="62" value="Управлять календарём встреч" style="ellipse;whiteSpace=wrap;html=1;" parent="1" vertex="1">
          <mxGeometry x="190" y="2268" width="140" height="70" as="geometry" />
        </mxCell>
        <mxCell id="65" value="Предложить встречу" style="ellipse;whiteSpace=wrap;html=1;" parent="1" vertex="1">
          <mxGeometry x="430" y="2268" width="140" height="70" as="geometry" />
        </mxCell>
        <mxCell id="67" value="&amp;lt;&amp;lt;include&amp;gt;&amp;gt;" style="edgeStyle=none;html=1;endArrow=open;verticalAlign=bottom;dashed=1;labelBackgroundColor=none;rounded=0;exitX=1;exitY=0.5;exitDx=0;exitDy=0;entryX=0;entryY=0.5;entryDx=0;entryDy=0;" parent="1" source="62" target="65" edge="1">
          <mxGeometry width="160" relative="1" as="geometry">
            <mxPoint x="340" y="2115" as="sourcePoint" />
            <mxPoint x="460" y="2155" as="targetPoint" />
          </mxGeometry>
        </mxCell>
        <mxCell id="71" value="Посмотреть список личных достижений" style="ellipse;whiteSpace=wrap;html=1;" parent="1" vertex="1">
          <mxGeometry x="190" y="2410" width="140" height="70" as="geometry" />
        </mxCell>
        <mxCell id="72" value="Посмотреть подробную информацию о достижениях" style="ellipse;whiteSpace=wrap;html=1;" parent="1" vertex="1">
          <mxGeometry x="430" y="2410" width="140" height="70" as="geometry" />
        </mxCell>
        <mxCell id="74" value="&amp;lt;&amp;lt;include&amp;gt;&amp;gt;" style="edgeStyle=none;html=1;endArrow=open;verticalAlign=bottom;dashed=1;labelBackgroundColor=none;rounded=0;exitX=1;exitY=0.5;exitDx=0;exitDy=0;entryX=0;entryY=0.5;entryDx=0;entryDy=0;" parent="1" source="71" target="72" edge="1">
          <mxGeometry width="160" relative="1" as="geometry">
            <mxPoint x="340" y="2125" as="sourcePoint" />
            <mxPoint x="410" y="2410" as="targetPoint" />
          </mxGeometry>
        </mxCell>
        <mxCell id="78" value="" style="edgeStyle=none;html=1;endArrow=none;verticalAlign=bottom;rounded=0;exitX=0.5;exitY=0.5;exitDx=0;exitDy=0;exitPerimeter=0;entryX=0;entryY=0.5;entryDx=0;entryDy=0;" parent="1" source="56" target="57" edge="1">
          <mxGeometry width="160" relative="1" as="geometry">
            <mxPoint x="65" y="1850" as="sourcePoint" />
            <mxPoint x="690" y="2320" as="targetPoint" />
          </mxGeometry>
        </mxCell>
        <mxCell id="85" value="Посмотреть опыт работы и навыки" style="ellipse;whiteSpace=wrap;html=1;" parent="1" vertex="1">
          <mxGeometry x="430" y="2077" width="140" height="70" as="geometry" />
        </mxCell>
        <mxCell id="86" value="&amp;lt;&amp;lt;include&amp;gt;&amp;gt;" style="edgeStyle=none;html=1;endArrow=open;verticalAlign=bottom;dashed=1;labelBackgroundColor=none;rounded=0;entryX=0;entryY=0.5;entryDx=0;entryDy=0;exitX=1;exitY=1;exitDx=0;exitDy=0;" parent="1" source="57" target="85" edge="1">
          <mxGeometry x="-0.0069" width="160" relative="1" as="geometry">
            <mxPoint x="260" y="2727" as="sourcePoint" />
            <mxPoint x="427" y="2592" as="targetPoint" />
            <mxPoint as="offset" />
          </mxGeometry>
        </mxCell>
        <mxCell id="89" value="&amp;lt;&amp;lt;extend&amp;gt;&amp;gt;" style="edgeStyle=none;html=1;startArrow=open;endArrow=none;startSize=12;verticalAlign=bottom;dashed=1;labelBackgroundColor=none;exitX=1;exitY=0;exitDx=0;exitDy=0;entryX=0;entryY=0.5;entryDx=0;entryDy=0;" parent="1" source="85" target="91" edge="1">
          <mxGeometry width="160" relative="1" as="geometry">
            <mxPoint x="540" y="2277" as="sourcePoint" />
            <mxPoint x="710" y="2322" as="targetPoint" />
          </mxGeometry>
        </mxCell>
        <mxCell id="90" value="&amp;lt;&amp;lt;extend&amp;gt;&amp;gt;" style="edgeStyle=none;html=1;startArrow=open;endArrow=none;startSize=12;verticalAlign=bottom;dashed=1;labelBackgroundColor=none;exitX=1;exitY=1;exitDx=0;exitDy=0;entryX=0;entryY=0.5;entryDx=0;entryDy=0;" parent="1" source="85" target="92" edge="1">
          <mxGeometry width="160" relative="1" as="geometry">
            <mxPoint x="550" y="2367" as="sourcePoint" />
            <mxPoint x="710" y="2407" as="targetPoint" />
          </mxGeometry>
        </mxCell>
        <mxCell id="91" value="Посмотреть опыт работы" style="ellipse;whiteSpace=wrap;html=1;" parent="1" vertex="1">
          <mxGeometry x="660" y="2007" width="140" height="70" as="geometry" />
        </mxCell>
        <mxCell id="92" value="Посмотреть навыки" style="ellipse;whiteSpace=wrap;html=1;" parent="1" vertex="1">
          <mxGeometry x="660" y="2147" width="140" height="70" as="geometry" />
        </mxCell>
        <mxCell id="107" value="Посмотреть список предложенных встреч" style="ellipse;whiteSpace=wrap;html=1;" parent="1" vertex="1">
          <mxGeometry x="430" y="1110" width="140" height="70" as="geometry" />
        </mxCell>
        <mxCell id="108" value="&amp;lt;&amp;lt;include&amp;gt;&amp;gt;" style="edgeStyle=none;html=1;endArrow=open;verticalAlign=bottom;dashed=1;labelBackgroundColor=none;rounded=0;exitX=0.573;exitY=0.025;exitDx=0;exitDy=0;entryX=0;entryY=0.5;entryDx=0;entryDy=0;exitPerimeter=0;" parent="1" source="sTOlMVgeT1HYII_DFmIz-27" target="107" edge="1">
          <mxGeometry width="160" relative="1" as="geometry">
            <mxPoint x="259.9974746830583" y="1075.2512626584708" as="sourcePoint" />
            <mxPoint x="380.5" y="1070" as="targetPoint" />
          </mxGeometry>
        </mxCell>
        <mxCell id="109" value="Принять встречу" style="ellipse;whiteSpace=wrap;html=1;" parent="1" vertex="1">
          <mxGeometry x="660" y="1040" width="140" height="70" as="geometry" />
        </mxCell>
        <mxCell id="110" value="Отклонить встречу" style="ellipse;whiteSpace=wrap;html=1;" parent="1" vertex="1">
          <mxGeometry x="660" y="1180" width="140" height="70" as="geometry" />
        </mxCell>
        <mxCell id="111" value="&amp;lt;&amp;lt;include&amp;gt;&amp;gt;" style="edgeStyle=none;html=1;endArrow=open;verticalAlign=bottom;dashed=1;labelBackgroundColor=none;rounded=0;exitX=1;exitY=0;exitDx=0;exitDy=0;entryX=0;entryY=0.5;entryDx=0;entryDy=0;" parent="1" source="107" target="109" edge="1">
          <mxGeometry width="160" relative="1" as="geometry">
            <mxPoint x="509.9974746830583" y="1105.2512626584705" as="sourcePoint" />
            <mxPoint x="630.5" y="1000" as="targetPoint" />
          </mxGeometry>
        </mxCell>
        <mxCell id="112" value="&amp;lt;&amp;lt;include&amp;gt;&amp;gt;" style="edgeStyle=none;html=1;endArrow=open;verticalAlign=bottom;dashed=1;labelBackgroundColor=none;rounded=0;exitX=1;exitY=1;exitDx=0;exitDy=0;entryX=0;entryY=0.5;entryDx=0;entryDy=0;" parent="1" source="107" target="110" edge="1">
          <mxGeometry width="160" relative="1" as="geometry">
            <mxPoint x="559.4974746830583" y="1130.251262658471" as="sourcePoint" />
            <mxPoint x="650" y="1085" as="targetPoint" />
          </mxGeometry>
        </mxCell>
      </root>
    </mxGraphModel>
  </diagram>
</mxfile>
